<?xml version="1.0" encoding="UTF-8" standalone="no"?>
<!-- Created with Inkscape (http://www.inkscape.org/) -->

<svg
   width="48.585182mm"
   height="34.945236mm"
   viewBox="0 0 48.585182 34.945236"
   version="1.1"
   id="svg3305"
   sodipodi:docname="rpm.svg"
   inkscape:version="1.2 (dc2aedaf03, 2022-05-15)"
   xmlns:inkscape="http://www.inkscape.org/namespaces/inkscape"
   xmlns:sodipodi="http://sodipodi.sourceforge.net/DTD/sodipodi-0.dtd"
   xmlns="http://www.w3.org/2000/svg"
   xmlns:svg="http://www.w3.org/2000/svg">
  <sodipodi:namedview
     id="namedview3307"
     pagecolor="#505050"
     bordercolor="#eeeeee"
     borderopacity="1"
     inkscape:showpageshadow="0"
     inkscape:pageopacity="0"
     inkscape:pagecheckerboard="0"
     inkscape:deskcolor="#505050"
     inkscape:document-units="mm"
     showgrid="false"
     inkscape:zoom="5.117627"
     inkscape:cx="99.167055"
     inkscape:cy="73.666955"
     inkscape:window-width="1920"
     inkscape:window-height="1025"
     inkscape:window-x="0"
     inkscape:window-y="0"
     inkscape:window-maximized="1"
     inkscape:current-layer="Capa_10" />
  <defs
     id="defs3302">
    <linearGradient
       id="linearGradient10674"
       inkscape:swatch="solid">
      <stop
         style="stop-color:#ffffff;stop-opacity:1;"
         offset="0"
         id="stop10672" />
    </linearGradient>
  </defs>
  <g
     inkscape:label="Capa 1"
     inkscape:groupmode="layer"
     id="layer1"
     transform="translate(-14.270055,-14.473789)">
    <g
       id="g656"
       transform="matrix(0.26458333,0,0,0.26458333,-6.6811043,-2.1155867)">
      <g
         id="Capa_10">
        <g
           id="XMLID_1_">
          <g
             id="g7583" />
        </g>
        <g
           id="XMLID_2_">
          <g
             id="g7588">
            <path
               id="path7586"
               style="fill:none;stroke:#ffffff;stroke-opacity:1"
               class="st4"
               d="m 109.2,184 -20.5,10.1 c 0,0 -1,-2.2 -1.3,-2.9 l 20.8,-9.1 z M 102,160.2 80,162 c -0.2,-2.5 -0.3,-5 -0.3,-7.5 0,-0.8 0,-1.7 0,-2.5 l 21.9,0.6 c 0,0 0,0.1 0,0.1 0,2.5 0.2,5 0.4,7.5 z m -21.5,-18.3 21.5,3 c -0.3,2.5 -0.4,5.1 -0.4,7.7 L 79.7,152 c 0.1,-3.4 0.4,-6.8 0.8,-10.1 z m 22.8,25.8 -22,4.3 c -0.6,-3.3 -1.1,-6.6 -1.4,-10 l 22,-1.8 c 0.4,2.6 0.8,5.1 1.4,7.5 z m -20.9,-35.6 20.9,5.3 c -0.6,2.5 -1,5 -1.3,7.6 l -21.5,-3 c 0.5,-3.4 1.1,-6.7 1.9,-9.9 z m 22.9,42.9 -21.5,6.7 c -1,-3.2 -1.8,-6.4 -2.5,-9.8 l 21.9,-4.3 c 0.6,2.6 1.3,5 2.1,7.4 z m -19.9,-52.5 20,7.5 c -0.8,2.4 -1.6,4.9 -2.1,7.4 l -20.9,-5.3 c 0.9,-3.3 1.9,-6.5 3,-9.6 z m 22.8,59.5 -20.8,9.1 c -1.3,-3.1 -2.5,-6.2 -3.5,-9.4 l 21.5,-6.7 c 0.8,2.4 1.7,4.8 2.8,7 z m 0,0 c 0,0 0,0.1 0.1,0.1 l -20.8,9.2 c 0,-0.1 -0.1,-0.1 -0.1,-0.2 z m -18.7,-68.8 18.9,9.6 c -1.1,2.3 -2.1,4.7 -2.9,7.1 l -20,-7.5 c 1.1,-3.1 2.5,-6.2 4,-9.2 z m 5,-8.7 17.6,11.5 c -1.4,2.2 -2.6,4.4 -3.7,6.8 l -18.9,-9.6 c 1.5,-3 3.2,-5.9 5,-8.7 z m 6,-8.1 16.1,13.3 c -1.6,2 -3.1,4.1 -4.5,6.3 L 94.5,104.5 c 1.9,-2.8 3.9,-5.5 6,-8.1 z m 6.8,-7.4 14.5,14.9 c -1.8,1.8 -3.6,3.8 -5.2,5.8 L 100.5,96.4 c 2.1,-2.6 4.4,-5 6.8,-7.4 z m 7.6,-6.6 12.7,16.3 c -2,1.6 -4,3.3 -5.8,5.2 L 107.3,89 c 2.4,-2.3 5,-4.5 7.6,-6.6 z m 8.3,-5.7 10.8,17.5 c -2.2,1.4 -4.3,2.9 -6.3,4.5 L 115,82.4 c 2.5,-2.1 5.3,-4 8.2,-5.7 z m 8.8,-4.8 8.8,18.5 c -2.4,1.1 -4.6,2.4 -6.8,3.8 L 123.2,76.7 c 2.8,-1.8 5.8,-3.4 8.8,-4.8 z m 9.3,-3.8 6.7,19.4 c -2.5,0.8 -4.9,1.8 -7.2,3 L 132,71.9 c 3,-1.5 6.1,-2.7 9.3,-3.8 z m 9.7,-2.7 4.5,20 c -2.6,0.6 -5.1,1.3 -7.5,2.1 l -6.7,-19.4 c 3.2,-1.1 6.4,-2 9.7,-2.7 z m 10,-1.7 2.3,20.3 c -2.6,0.3 -5.2,0.7 -7.7,1.3 l -4.5,-20 c 3.2,-0.7 6.5,-1.2 9.9,-1.6 z m 10,-0.5 v 20.5 c -0.1,0 -0.2,0 -0.3,0 -2.5,0 -5,0.1 -7.4,0.4 L 161,63.7 c 3.3,-0.4 6.6,-0.5 10,-0.5 z m 10.1,0.5 -2.3,20.4 c -2.6,-0.3 -5.1,-0.5 -7.8,-0.5 V 63.2 c 3.4,0 6.8,0.1 10.1,0.5 z m 9.9,1.7 -4.5,20.1 c -2.5,-0.6 -5.1,-1 -7.7,-1.3 l 2.3,-20.4 c 3.3,0.3 6.6,0.8 9.9,1.6 z m 9.7,2.7 -6.7,19.6 c -2.4,-0.9 -4.9,-1.6 -7.5,-2.2 L 191,65.4 c 3.3,0.7 6.5,1.6 9.7,2.7 z m 9.3,3.8 -8.9,18.8 c -2.3,-1.2 -4.7,-2.2 -7.2,-3 l 6.7,-19.6 c 3.3,1.1 6.4,2.3 9.4,3.8 z m 8.8,4.8 -11,17.8 c -2.2,-1.4 -4.4,-2.7 -6.8,-3.8 l 8.9,-18.8 c 3.1,1.4 6.1,3 8.9,4.8 z m 8.3,5.7 -13,16.6 c -2,-1.6 -4.1,-3.1 -6.3,-4.5 l 11,-17.8 c 2.9,1.7 5.7,3.6 8.3,5.7 z m 7.6,6.6 -14.8,15.2 c -1.8,-1.8 -3.7,-3.6 -5.7,-5.2 l 13,-16.6 c 2.6,2.1 5.1,4.3 7.5,6.6 z m 6.8,7.4 -16.5,13.7 c -1.6,-2 -3.3,-4 -5.1,-5.8 L 234.7,89 c 2.4,2.4 4.7,4.8 6.8,7.4 z m 6,8.1 -18.1,11.8 c -1.3,-2.2 -2.8,-4.3 -4.4,-6.3 l 16.5,-13.6 c 2.1,2.6 4.1,5.3 6,8.1 z m 5,8.7 -19.5,9.8 c -1.1,-2.3 -2.3,-4.6 -3.7,-6.7 l 18.1,-11.8 c 1.9,2.8 3.6,5.7 5.1,8.7 z m 4,9.3 -20.6,7.7 c -0.8,-2.4 -1.8,-4.8 -2.9,-7.1 l 19.5,-9.8 c 1.5,2.9 2.9,6 4,9.2 z m 3.1,9.6 -21.5,5.5 c -0.6,-2.5 -1.3,-5 -2.1,-7.3 l 20.6,-7.7 c 1.1,3 2.1,6.2 3,9.5 z m -21.5,35.5 22.6,4.4 c -0.6,3.3 -1.5,6.6 -2.5,9.8 l -22.1,-6.9 v 0 c 0.7,-2.4 1.37491,-4.82097 2,-7.3 z m 23.4,-25.7 -22.2,3.1 c -0.3,-2.6 -0.7,-5.1 -1.2,-7.5 l 21.5,-5.5 c 0.8,3.3 1.4,6.6 1.9,9.9 z m -22.2,18.2 22.7,1.9 c -0.3,3.4 -0.7,6.7 -1.4,10 L 238,167.6 c 0.6,-2.5 1,-4.9 1.3,-7.5 z m 23,-8.1 -22.6,0.6 c 0,-2.6 -0.2,-5.1 -0.4,-7.6 l 22.2,-3.1 c 0.4,3.3 0.7,6.7 0.8,10.1 z m 0,0 c 0,0.8 0,1.7 0,2.5 0,2.5 -0.1,5.1 -0.3,7.5 l -22.7,-1.9 c 0.3,-2.5 0.4,-4.9 0.4,-7.5 0,0 0,0 0,-0.1 z" />
          </g>
          <g
             id="g7590" />
        </g>
      </g>
    </g>
  </g>
</svg>
